<svg width="298" height="75" viewBox="0 0 298 75" fill="none" xmlns="http://www.w3.org/2000/svg">
<g clip-path="url(#clip0)">
<path d="M53.4371 0L84.8725 75V0H53.4371ZM0 0V75L31.4354 0H0ZM28.7401 59.7054H43.0944L49.3941 74.9687H62.4008L42.2169 27.3924L28.7401 59.7054Z" fill="white"/>
<path d="M137.557 48.3911L134.11 58.7651C133.984 59.1412 133.796 59.2666 133.42 59.2666H127.121C126.745 59.2666 126.619 59.0785 126.682 58.6397L139.657 21.7509C139.908 21.1241 140.096 20.4972 140.221 18.366C140.221 18.1153 140.347 17.9272 140.597 17.9272H149.342C149.655 17.9272 149.718 17.9899 149.781 18.3033L164.323 58.7338C164.386 59.1099 164.323 59.2979 163.947 59.2979H156.895C156.582 59.2979 156.394 59.1726 156.268 58.9218L152.601 48.4224H137.557V48.3911ZM150.595 41.5273C149.279 37.3589 146.302 28.6147 145.048 24.2269H144.985C143.982 28.458 141.444 35.8232 139.563 41.5273H150.595Z" fill="white"/>
<path d="M166.58 44.0347C166.58 34.9143 173.381 27.6118 184.476 27.6118C185.353 27.6118 186.105 27.6744 187.171 27.7998V14.8871C187.171 14.5737 187.296 14.4484 187.547 14.4484H194.411C194.724 14.4484 194.724 14.5737 194.724 14.8245V52.8416C194.724 54.0953 194.85 55.725 194.975 56.8846C194.975 57.1981 194.912 57.3234 194.599 57.4488C190.493 59.2039 186.481 59.8934 182.689 59.8934C173.569 59.9248 166.58 54.6281 166.58 44.0347ZM187.171 34.4128C186.356 34.0994 185.353 33.9741 184.225 33.9741C178.615 33.9741 174.415 37.5783 174.415 43.6586C174.415 50.5223 178.521 53.3431 183.535 53.3431C184.789 53.3431 186.043 53.2177 187.202 52.8416V34.4128H187.171Z" fill="white"/>
<path d="M231.049 43.5958C231.049 53.343 224.812 59.8933 215.942 59.8933C205.411 59.8933 200.773 51.7759 200.773 43.7839C200.773 34.8516 206.634 27.6117 216.068 27.6117C225.783 27.6117 231.049 34.9769 231.049 43.5958ZM208.452 43.6585C208.452 49.4567 211.272 53.4684 216.068 53.4684C219.985 53.4684 223.307 50.2715 223.307 43.7839C223.307 38.5498 221.051 33.974 215.691 33.974C211.492 33.974 208.452 37.6723 208.452 43.6585Z" fill="white"/>
<path d="M244.024 14.4484C244.463 14.4484 244.588 14.511 244.588 14.9498L244.651 28.4893C246.343 27.9252 248.318 27.6118 250.386 27.6118C259.444 27.6118 265.242 34.0367 265.242 42.4676C265.242 54.1266 256.184 59.8934 246.845 59.8934C243.585 59.8934 240.42 59.4546 237.411 58.5144C237.16 58.4517 236.972 58.1383 236.972 57.9502V14.8871C236.972 14.5737 237.16 14.4484 237.411 14.4484H244.024ZM249.07 34.0994C246.876 34.0994 245.685 34.4128 244.651 34.7889V53.1864C245.528 53.4371 246.469 53.4998 247.534 53.4998C252.706 53.4998 257.469 50.2403 257.469 43.2511C257.501 37.2336 254.053 34.0994 249.07 34.0994Z" fill="white"/>
<path d="M277.403 45.5077C277.591 49.9268 280.474 53.4371 286.899 53.4371C289.72 53.4371 292.321 52.9356 294.703 51.9327C294.891 51.8073 295.079 51.87 295.079 52.1834V57.4174C295.079 57.7935 294.954 57.9816 294.703 58.1069C292.321 59.2352 289.532 59.9247 285.269 59.9247C273.799 59.9247 269.724 51.87 269.724 44.1287C269.724 35.3844 275.021 27.6431 284.517 27.6431C293.826 27.6431 297.43 34.9456 297.43 40.9318C297.43 42.6869 297.367 44.1287 297.179 44.8495C297.117 45.1002 296.991 45.2256 296.678 45.2883C295.8 45.4763 293.293 45.539 290.19 45.539H277.403V45.5077ZM286.774 40.0856C289.156 40.0856 289.971 40.0856 290.221 40.0229C290.221 39.8349 290.221 39.5841 290.221 39.5215C290.221 37.7037 288.968 33.6606 284.173 33.6606C279.816 33.6606 277.873 36.9828 277.371 40.0856H286.774Z" fill="white"/>
</g>
<defs>
<clipPath id="clip0">
<rect width="297.43" height="75" fill="white"/>
</clipPath>
</defs>
</svg>
