<svg width="251" height="93" viewBox="0 0 251 93" fill="none" xmlns="http://www.w3.org/2000/svg">
<path d="M165.089 57.3528C162.021 57.3549 159.08 58.5777 156.912 60.7522C154.743 62.9267 153.525 65.8751 153.525 68.9493V72.3921C153.527 75.4656 154.746 78.4128 156.914 80.5869C159.082 82.7609 162.022 83.9844 165.089 83.9887H172.447V79.7858H165.089C163.203 79.7833 161.389 79.057 160.021 77.7559C158.652 76.4549 157.833 74.678 157.731 72.7905H172.837C173.849 72.7883 174.82 72.3842 175.536 71.6666C176.252 70.949 176.655 69.9764 176.658 68.9615C176.658 65.8855 175.439 62.9352 173.27 60.7586C171.101 58.5821 168.159 57.3571 165.089 57.3528V57.3528ZM157.731 68.5551C157.83 66.667 158.648 64.889 160.017 63.5876C161.386 62.2863 163.2 61.5608 165.087 61.5608C166.974 61.5608 168.789 62.2863 170.157 63.5876C171.526 64.889 172.344 66.667 172.443 68.5551H157.731Z" fill="white"/>
<path d="M96.7943 51.5844C95.1694 53.2657 94.2628 55.5157 94.2672 57.8562V58.4212H91.8335V62.6282H94.2672V83.9718H98.4654V62.6241H104.124V58.4212H98.4533V57.8562C98.4533 55.2833 100.546 53.1087 103.017 53.1087H106.116V48.9017H103.017C101.852 48.9025 100.7 49.1408 99.6301 49.602C98.5604 50.0632 97.5956 50.7377 96.7943 51.5844V51.5844Z" fill="white"/>
<path d="M112.715 48.8617H116.913V83.9684H112.715V48.8617Z" fill="white"/>
<path d="M142.427 73.1441C142.449 74.0272 142.294 74.9057 141.972 75.7279C141.65 76.5501 141.167 77.2995 140.551 77.9318C139.936 78.5641 139.2 79.0666 138.388 79.4097C137.575 79.7528 136.703 79.9295 135.821 79.9295C134.94 79.9295 134.067 79.7528 133.255 79.4097C132.443 79.0666 131.707 78.5641 131.092 77.9318C130.476 77.2995 129.993 76.5501 129.671 75.7279C129.349 74.9057 129.194 74.0272 129.216 73.1441V57.3528H125.018V73.1441C125.018 76.0149 126.156 78.768 128.181 80.798C130.207 82.8279 132.955 83.9683 135.819 83.9683C138.684 83.9683 141.432 82.8279 143.457 80.798C145.483 78.768 146.621 76.0149 146.621 73.1441V57.3528H142.427V73.1441Z" fill="white"/>
<path d="M191.69 57.3528C188.826 57.3549 186.08 58.496 184.054 60.5255C182.029 62.555 180.89 65.3069 180.888 68.177V83.9683H185.086V68.177C185.065 67.294 185.219 66.4155 185.541 65.5932C185.864 64.771 186.347 64.0216 186.962 63.3893C187.578 62.757 188.313 62.2545 189.126 61.9115C189.938 61.5684 190.81 61.3916 191.692 61.3916C192.573 61.3916 193.446 61.5684 194.258 61.9115C195.071 62.2545 195.806 62.757 196.422 63.3893C197.037 64.0216 197.52 64.771 197.843 65.5932C198.165 66.4155 198.319 67.294 198.298 68.177V83.9683H202.496V68.177C202.494 65.3062 201.354 62.5537 199.328 60.5241C197.302 58.4945 194.555 57.3539 191.69 57.3528V57.3528Z" fill="white"/>
<path d="M214.648 75.0057V61.5394H220.327V57.3324H214.648V48.8535H210.45V57.3324H206.718V61.5394H210.45V74.9935C210.453 77.3197 211.375 79.55 213.015 81.1967C214.654 82.8435 216.878 83.7728 219.199 83.7814H221.057V79.5744H219.199C217.992 79.5723 216.834 79.09 215.981 78.2334C215.127 77.3768 214.648 76.216 214.648 75.0057Z" fill="white"/>
<path d="M242.056 48.8616V59.6168C240.459 58.3774 238.547 57.6117 236.538 57.4067C234.528 57.2018 232.502 57.5659 230.688 58.4575C228.875 59.3492 227.347 60.7327 226.279 62.4508C225.211 64.169 224.646 66.1529 224.647 68.177V73.1522C224.647 76.023 225.785 78.7762 227.811 80.8061C229.836 82.836 232.584 83.9764 235.449 83.9764C238.314 83.9764 241.061 82.836 243.087 80.8061C245.112 78.7762 246.251 76.023 246.251 73.1522V48.8535H242.052L242.056 48.8616ZM242.056 70.5427V73.1441C242.078 74.0271 241.923 74.9056 241.601 75.7279C241.279 76.5501 240.796 77.2995 240.181 77.9318C239.565 78.5641 238.829 79.0666 238.017 79.4096C237.205 79.7527 236.332 79.9295 235.451 79.9295C234.569 79.9295 233.697 79.7527 232.884 79.4096C232.072 79.0666 231.337 78.5641 230.721 77.9318C230.105 77.2995 229.622 76.5501 229.3 75.7279C228.978 74.9056 228.823 74.0271 228.845 73.1441V68.1689C228.823 67.2858 228.978 66.4073 229.3 65.5851C229.622 64.7628 230.105 64.0135 230.721 63.3812C231.337 62.7489 232.072 62.2464 232.884 61.9033C233.697 61.5602 234.569 61.3835 235.451 61.3835C236.332 61.3835 237.205 61.5602 238.017 61.9033C238.829 62.2464 239.565 62.7489 240.181 63.3812C240.796 64.0135 241.279 64.7628 241.601 65.5851C241.923 66.4073 242.078 67.2858 242.056 68.1689V70.5427Z" fill="white"/>
<path d="M91.6512 36.5618C92.8228 36.5618 93.7726 35.6101 93.7726 34.436C93.7726 33.2619 92.8228 32.3102 91.6512 32.3102C90.4796 32.3102 89.5298 33.2619 89.5298 34.436C89.5298 35.6101 90.4796 36.5618 91.6512 36.5618Z" fill="white"/>
<path d="M41.3612 21.5429C37.9823 18.9496 34.5386 16.2588 31.1598 13.82C30.381 13.2672 29.59 12.7225 28.8883 12.1657C19.7861 5.89792 11.3126 1.95924 6.60329 7.47908C3.00135 11.7185 4.9524 21.5429 12.3307 33.4158L12.566 33.8223C16.4072 39.8787 27.6227 54.1051 54.2276 53.4751C55.9555 51.585 58.6205 48.0528 62.0764 44.1954C56.4991 35.058 48.1067 27.1237 41.3612 21.5429Z" fill="url(#paint0_linear)"/>
<path d="M62.0769 44.1832C58.6209 48.0325 55.956 51.5728 54.228 53.4629C58.2231 53.3964 62.2089 53.0555 66.1574 52.4427C65.7671 51.2821 65.2954 50.1507 64.7459 49.0568C63.9549 47.4065 63.0341 45.7563 62.0769 44.1832Z" fill="url(#paint1_linear)"/>
<path d="M82.0049 29.5584C74.7848 31.7534 67.6458 35.4563 58.4787 32.546C53.8303 31.1315 47.7905 26.5831 41.2803 21.6201C48.1029 27.1237 56.4952 35.0661 62.0644 44.1791C67.1712 38.4439 73.9857 32.1517 82.0049 29.5584Z" fill="url(#paint2_linear)"/>
<path d="M66.1573 52.4344C66.4737 53.2961 66.7901 54.166 67.0172 55.0277C67.5799 57.1395 67.9465 59.2989 68.1124 61.4784C68.1895 62.4173 68.1895 63.3684 68.1895 64.3236C68.0313 70.38 65.2852 73.8309 64.5835 74.4853C74.3874 65.2829 78.7803 54.2026 88.3531 45.7887C89.9797 44.3776 91.8024 43.211 93.7641 42.3256C87.4931 44.9635 80.6705 50.2395 66.1573 52.4344V52.4344Z" fill="url(#paint3_linear)"/>
<path d="M12.5667 33.8995C19.8679 45.3782 31.2254 54.4994 29.0391 67.23C26.2241 83.6553 4.80713 85.1511 4.80713 85.1511H5.28171C7.40312 85.1511 16.8947 84.4398 31.2416 74.6927C43.5564 66.2829 51.0117 56.9219 54.2283 53.4669C51.4527 53.5271 48.676 53.4213 45.913 53.1499C25.2749 51.02 16.0226 39.2243 12.5667 33.8995Z" fill="url(#paint4_linear)"/>
<path d="M68.1126 64.3074C68.1852 60.2573 67.4972 56.2297 66.0845 52.4344L64.2795 52.6702C60.9159 53.1048 57.53 53.3423 54.1389 53.3815C50.8411 56.8446 43.4628 66.1975 31.1522 74.6073C14.8299 85.8461 4.78662 85.147 4.78662 85.147C4.78662 85.147 28.8117 92.6098 48.2654 84.7406C54.3073 82.3726 59.846 78.8775 64.5877 74.4406C65.2854 73.7334 68.0315 70.3638 68.1126 64.3074V64.3074Z" fill="url(#paint5_linear)"/>
<path d="M104.124 38.1269C103.043 37.5883 102.039 36.9046 101.143 36.0945C100.283 35.2328 99.3375 32.9484 98.9521 32.3265C97.7758 30.3592 96.0479 28.7821 92.4622 28.3188C88.8765 27.8554 85.4814 28.5545 82.1025 29.5748C74.0266 32.168 67.1918 38.4602 62.0972 44.2076C63.0923 45.7726 63.9825 47.402 64.7621 49.0852C65.3013 50.1839 65.7727 51.3146 66.1737 52.4711C80.691 50.2762 87.5136 45.0002 93.7926 42.3094C96.9085 40.9792 100.271 40.3293 103.657 40.4031H105.462C106.789 40.4803 105.454 38.9195 104.124 38.1269V38.1269Z" fill="url(#paint6_linear)"/>
<path d="M41.3612 21.5429C37.9823 18.9496 34.5386 16.2588 31.1598 13.82C30.381 13.2672 29.59 12.7225 28.8883 12.1657C19.7861 5.89792 11.3126 1.95924 6.60329 7.47908C3.00135 11.7185 4.9524 21.5429 12.3307 33.4158L12.566 33.8223C16.4072 39.8787 27.6227 54.1051 54.2276 53.4751C55.9555 51.585 58.6205 48.0528 62.0764 44.1954C56.4991 35.058 48.1067 27.1237 41.3612 21.5429Z" fill="url(#paint7_linear)"/>
<path d="M62.0769 44.1832C58.6209 48.0325 55.956 51.5728 54.228 53.4629C58.2231 53.3964 62.2089 53.0555 66.1574 52.4427C65.7671 51.2821 65.2954 50.1507 64.7459 49.0568C63.9549 47.4065 63.0341 45.7563 62.0769 44.1832Z" fill="url(#paint8_linear)"/>
<path d="M82.0049 29.5584C74.7848 31.7534 67.6458 35.4563 58.4787 32.546C53.8303 31.1315 47.7905 26.5831 41.2803 21.6201C48.1029 27.1237 56.4952 35.0661 62.0644 44.1791C67.1712 38.4439 73.9857 32.1517 82.0049 29.5584Z" fill="url(#paint9_linear)"/>
<path d="M66.1573 52.4344C66.4737 53.2961 66.7901 54.166 67.0172 55.0277C67.5799 57.1395 67.9465 59.2989 68.1124 61.4784C68.1895 62.4173 68.1895 63.3684 68.1895 64.3236C68.0313 70.38 65.2852 73.8309 64.5835 74.4853C74.3874 65.2829 78.7803 54.2026 88.3531 45.7887C89.9797 44.3776 91.8024 43.211 93.7641 42.3256C87.4931 44.9635 80.6705 50.2395 66.1573 52.4344V52.4344Z" fill="url(#paint10_linear)"/>
<path d="M12.5667 33.8995C19.8679 45.3782 31.2254 54.4994 29.0391 67.23C26.2241 83.6553 4.80713 85.1511 4.80713 85.1511H5.28171C7.40312 85.1511 16.8947 84.4398 31.2416 74.6927C43.5564 66.2829 51.0117 56.9219 54.2283 53.4669C51.4527 53.5271 48.676 53.4213 45.913 53.1499C25.2749 51.02 16.0226 39.2243 12.5667 33.8995Z" fill="url(#paint11_linear)"/>
<path d="M68.1126 64.3074C68.1852 60.2573 67.4972 56.2297 66.0845 52.4344L64.2795 52.6702C60.9159 53.1048 57.53 53.3423 54.1389 53.3815C50.8411 56.8446 43.4628 66.1975 31.1522 74.6073C14.8299 85.8461 4.78662 85.147 4.78662 85.147C4.78662 85.147 28.8117 92.6098 48.2654 84.7406C54.3073 82.3726 59.846 78.8775 64.5877 74.4406C65.2854 73.7334 68.0315 70.3638 68.1126 64.3074V64.3074Z" fill="url(#paint12_linear)"/>
<path d="M104.124 38.1269C103.043 37.5883 102.039 36.9046 101.143 36.0945C100.283 35.2328 99.3375 32.9484 98.9521 32.3265C97.7758 30.3592 96.0479 28.7821 92.4622 28.3188C88.8765 27.8554 85.4814 28.5545 82.1025 29.5748C74.0266 32.168 67.1918 38.4602 62.0972 44.2076C63.0923 45.7726 63.9825 47.402 64.7621 49.0852C65.3013 50.1839 65.7727 51.3146 66.1737 52.4711C80.691 50.2762 87.5136 45.0002 93.7926 42.3094C96.9085 40.9792 100.271 40.3293 103.657 40.4031H105.462C106.789 40.4803 105.454 38.9195 104.124 38.1269V38.1269Z" fill="url(#paint13_linear)"/>
<path d="M41.3612 21.5429C37.9823 18.9496 34.5386 16.2588 31.1598 13.82C30.381 13.2672 29.59 12.7225 28.8883 12.1657C19.7861 5.89792 11.3126 1.95924 6.60329 7.47908C3.00135 11.7185 4.9524 21.5429 12.3307 33.4158L12.566 33.8223C16.4072 39.8787 27.6227 54.1051 54.2276 53.4751C55.9555 51.585 58.6205 48.0528 62.0764 44.1954C56.4991 35.058 48.1067 27.1237 41.3612 21.5429Z" fill="url(#paint14_linear)"/>
<path d="M62.0769 44.1832C58.6209 48.0325 55.956 51.5728 54.228 53.4629C58.2231 53.3964 62.2089 53.0555 66.1574 52.4427C65.7671 51.2821 65.2954 50.1507 64.7459 49.0568C63.9549 47.4065 63.0341 45.7563 62.0769 44.1832Z" fill="url(#paint15_linear)"/>
<path d="M82.0049 29.5584C74.7848 31.7534 67.6458 35.4563 58.4787 32.546C53.8303 31.1315 47.7905 26.5831 41.2803 21.6201C48.1029 27.1237 56.4952 35.0661 62.0644 44.1791C67.1712 38.4439 73.9857 32.1517 82.0049 29.5584Z" fill="url(#paint16_linear)"/>
<path d="M66.1573 52.4344C66.4737 53.2961 66.7901 54.166 67.0172 55.0277C67.5799 57.1395 67.9465 59.2989 68.1124 61.4784C68.1895 62.4173 68.1895 63.3684 68.1895 64.3236C68.0313 70.38 65.2852 73.8309 64.5835 74.4853C74.3874 65.2829 78.7803 54.2026 88.3531 45.7887C89.9797 44.3776 91.8024 43.211 93.7641 42.3256C87.4931 44.9635 80.6705 50.2395 66.1573 52.4344V52.4344Z" fill="url(#paint17_linear)"/>
<path d="M12.5667 33.8995C19.8679 45.3782 31.2254 54.4994 29.0391 67.23C26.2241 83.6553 4.80713 85.1511 4.80713 85.1511H5.28171C7.40312 85.1511 16.8947 84.4398 31.2416 74.6927C43.5564 66.2829 51.0117 56.9219 54.2283 53.4669C51.4527 53.5271 48.676 53.4213 45.913 53.1499C25.2749 51.02 16.0226 39.2243 12.5667 33.8995Z" fill="url(#paint18_linear)"/>
<path d="M68.1126 64.3074C68.1852 60.2573 67.4972 56.2297 66.0845 52.4344L64.2795 52.6702C60.9159 53.1048 57.53 53.3423 54.1389 53.3815C50.8411 56.8446 43.4628 66.1975 31.1522 74.6073C14.8299 85.8461 4.78662 85.147 4.78662 85.147C4.78662 85.147 28.8117 92.6098 48.2654 84.7406C54.3073 82.3726 59.846 78.8775 64.5877 74.4406C65.2854 73.7334 68.0315 70.3638 68.1126 64.3074V64.3074Z" fill="url(#paint19_linear)"/>
<path d="M104.124 38.1269C103.043 37.5883 102.039 36.9046 101.143 36.0945C100.283 35.2328 99.3375 32.9484 98.9521 32.3265C97.7758 30.3592 96.0479 28.7821 92.4622 28.3188C88.8765 27.8554 85.4814 28.5545 82.1025 29.5748C74.0266 32.168 67.1918 38.4602 62.0972 44.2076C63.0923 45.7726 63.9825 47.402 64.7621 49.0852C65.3013 50.1839 65.7727 51.3146 66.1737 52.4711C80.691 50.2762 87.5136 45.0002 93.7926 42.3094C96.9085 40.9792 100.271 40.3293 103.657 40.4031H105.462C106.789 40.4803 105.454 38.9195 104.124 38.1269V38.1269Z" fill="url(#paint20_linear)"/>
<path d="M41.3612 21.5429C37.9823 18.9496 34.5386 16.2588 31.1598 13.82C30.381 13.2672 29.59 12.7225 28.8883 12.1657C19.7861 5.89792 11.3126 1.95924 6.60329 7.47908C3.00135 11.7185 4.9524 21.5429 12.3307 33.4158L12.566 33.8223C16.4072 39.8787 27.6227 54.1051 54.2276 53.4751C55.9555 51.585 58.6205 48.0528 62.0764 44.1954C56.4991 35.058 48.1067 27.1237 41.3612 21.5429Z" fill="url(#paint21_linear)"/>
<path d="M62.0769 44.1832C58.6209 48.0325 55.956 51.5728 54.228 53.4629C58.2231 53.3964 62.2089 53.0555 66.1574 52.4427C65.7671 51.2821 65.2954 50.1507 64.7459 49.0568C63.9549 47.4065 63.0341 45.7563 62.0769 44.1832Z" fill="url(#paint22_linear)"/>
<path d="M82.0049 29.5584C74.7848 31.7534 67.6458 35.4563 58.4787 32.546C53.8303 31.1315 47.7905 26.5831 41.2803 21.6201C48.1029 27.1237 56.4952 35.0661 62.0644 44.1791C67.1712 38.4439 73.9857 32.1517 82.0049 29.5584Z" fill="url(#paint23_linear)"/>
<path d="M66.1573 52.4344C66.4737 53.2961 66.7901 54.166 67.0172 55.0277C67.5799 57.1395 67.9465 59.2989 68.1124 61.4784C68.1895 62.4173 68.1895 63.3684 68.1895 64.3236C68.0313 70.38 65.2852 73.8309 64.5835 74.4853C74.3874 65.2829 78.7803 54.2026 88.3531 45.7887C89.9797 44.3776 91.8024 43.211 93.7641 42.3256C87.4931 44.9635 80.6705 50.2395 66.1573 52.4344V52.4344Z" fill="url(#paint24_linear)"/>
<path d="M12.5667 33.8995C19.8679 45.3782 31.2254 54.4994 29.0391 67.23C26.2241 83.6553 4.80713 85.1511 4.80713 85.1511H5.28171C7.40312 85.1511 16.8947 84.4398 31.2416 74.6927C43.5564 66.2829 51.0117 56.9219 54.2283 53.4669C51.4527 53.5271 48.676 53.4213 45.913 53.1499C25.2749 51.02 16.0226 39.2243 12.5667 33.8995Z" fill="url(#paint25_linear)"/>
<path d="M68.1126 64.3074C68.1852 60.2573 67.4972 56.2297 66.0845 52.4344L64.2795 52.6702C60.9159 53.1048 57.53 53.3423 54.1389 53.3815C50.8411 56.8446 43.4628 66.1975 31.1522 74.6073C14.8299 85.8461 4.78662 85.147 4.78662 85.147C4.78662 85.147 28.8117 92.6098 48.2654 84.7406C54.3073 82.3726 59.846 78.8775 64.5877 74.4406C65.2854 73.7334 68.0315 70.3638 68.1126 64.3074V64.3074Z" fill="url(#paint26_linear)"/>
<path d="M104.124 38.1269C103.043 37.5883 102.039 36.9046 101.143 36.0945C100.283 35.2328 99.3375 32.9484 98.9521 32.3265C97.7758 30.3592 96.0479 28.7821 92.4622 28.3188C88.8765 27.8554 85.4814 28.5545 82.1025 29.5748C74.0266 32.168 67.1918 38.4602 62.0972 44.2076C63.0923 45.7726 63.9825 47.402 64.7621 49.0852C65.3013 50.1839 65.7727 51.3146 66.1737 52.4711C80.691 50.2762 87.5136 45.0002 93.7926 42.3094C96.9085 40.9792 100.271 40.3293 103.657 40.4031H105.462C106.789 40.4803 105.454 38.9195 104.124 38.1269V38.1269Z" fill="url(#paint27_linear)"/>
<defs>
<linearGradient id="paint0_linear" x1="0.705518" y1="29.1642" x2="107.754" y2="29.1642" gradientUnits="userSpaceOnUse">
<stop stop-color="white" stop-opacity="0.75"/>
<stop offset="0.32" stop-color="white" stop-opacity="0.57"/>
<stop offset="0.68" stop-color="white" stop-opacity="0.55"/>
<stop offset="0.9" stop-color="white" stop-opacity="0.45"/>
</linearGradient>
<linearGradient id="paint1_linear" x1="4.79867" y1="48.821" x2="106.748" y2="48.821" gradientUnits="userSpaceOnUse">
<stop stop-color="white" stop-opacity="0.4"/>
<stop offset="0.67" stop-color="white" stop-opacity="0.5"/>
</linearGradient>
<linearGradient id="paint2_linear" x1="41.3452" y1="32.9037" x2="107.332" y2="32.9037" gradientUnits="userSpaceOnUse">
<stop stop-color="white" stop-opacity="0.38"/>
<stop offset="0.97" stop-color="white" stop-opacity="0.5"/>
</linearGradient>
<linearGradient id="paint3_linear" x1="79.1738" y1="16.775" x2="79.1738" y2="89.4068" gradientUnits="userSpaceOnUse">
<stop stop-color="white" stop-opacity="0.35"/>
<stop offset="0.96" stop-color="white" stop-opacity="0.38"/>
<stop offset="1" stop-color="white" stop-opacity="0.26"/>
</linearGradient>
<linearGradient id="paint4_linear" x1="-6.2015" y1="59.5111" x2="68.8592" y2="59.5111" gradientUnits="userSpaceOnUse">
<stop stop-color="white" stop-opacity="0.6"/>
<stop offset="0.93" stop-color="white" stop-opacity="0.47"/>
</linearGradient>
<linearGradient id="paint5_linear" x1="4.78662" y1="70.3922" x2="106.736" y2="70.3922" gradientUnits="userSpaceOnUse">
<stop stop-color="white" stop-opacity="0.38"/>
<stop offset="0.98" stop-color="white" stop-opacity="0.5"/>
</linearGradient>
<linearGradient id="paint6_linear" x1="84.0455" y1="63.9742" x2="84.0455" y2="27.4367" gradientUnits="userSpaceOnUse">
<stop stop-color="white" stop-opacity="0.3"/>
<stop offset="1" stop-color="white" stop-opacity="0.35"/>
</linearGradient>
<linearGradient id="paint7_linear" x1="0.705518" y1="29.1642" x2="107.754" y2="29.1642" gradientUnits="userSpaceOnUse">
<stop stop-color="white" stop-opacity="0.75"/>
<stop offset="0.32" stop-color="white" stop-opacity="0.57"/>
<stop offset="0.68" stop-color="white" stop-opacity="0.55"/>
<stop offset="0.9" stop-color="white" stop-opacity="0.45"/>
</linearGradient>
<linearGradient id="paint8_linear" x1="4.79867" y1="48.821" x2="106.748" y2="48.821" gradientUnits="userSpaceOnUse">
<stop stop-color="white" stop-opacity="0.4"/>
<stop offset="0.67" stop-color="white" stop-opacity="0.5"/>
</linearGradient>
<linearGradient id="paint9_linear" x1="41.3452" y1="32.9037" x2="107.332" y2="32.9037" gradientUnits="userSpaceOnUse">
<stop stop-color="white" stop-opacity="0.38"/>
<stop offset="0.97" stop-color="white" stop-opacity="0.5"/>
</linearGradient>
<linearGradient id="paint10_linear" x1="79.1738" y1="16.775" x2="79.1738" y2="89.4068" gradientUnits="userSpaceOnUse">
<stop stop-color="white" stop-opacity="0.35"/>
<stop offset="0.96" stop-color="white" stop-opacity="0.38"/>
<stop offset="1" stop-color="white" stop-opacity="0.26"/>
</linearGradient>
<linearGradient id="paint11_linear" x1="-6.2015" y1="59.5111" x2="68.8592" y2="59.5111" gradientUnits="userSpaceOnUse">
<stop stop-color="white" stop-opacity="0.6"/>
<stop offset="0.93" stop-color="white" stop-opacity="0.47"/>
</linearGradient>
<linearGradient id="paint12_linear" x1="4.78662" y1="70.3922" x2="106.736" y2="70.3922" gradientUnits="userSpaceOnUse">
<stop stop-color="white" stop-opacity="0.38"/>
<stop offset="0.98" stop-color="white" stop-opacity="0.5"/>
</linearGradient>
<linearGradient id="paint13_linear" x1="84.0455" y1="63.9742" x2="84.0455" y2="27.4367" gradientUnits="userSpaceOnUse">
<stop stop-color="white" stop-opacity="0.3"/>
<stop offset="1" stop-color="white" stop-opacity="0.35"/>
</linearGradient>
<linearGradient id="paint14_linear" x1="0.705518" y1="29.1642" x2="107.754" y2="29.1642" gradientUnits="userSpaceOnUse">
<stop stop-color="white" stop-opacity="0.75"/>
<stop offset="0.32" stop-color="white" stop-opacity="0.57"/>
<stop offset="0.68" stop-color="white" stop-opacity="0.55"/>
<stop offset="0.9" stop-color="white" stop-opacity="0.45"/>
</linearGradient>
<linearGradient id="paint15_linear" x1="4.79867" y1="48.821" x2="106.748" y2="48.821" gradientUnits="userSpaceOnUse">
<stop stop-color="white" stop-opacity="0.4"/>
<stop offset="0.67" stop-color="white" stop-opacity="0.5"/>
</linearGradient>
<linearGradient id="paint16_linear" x1="41.3452" y1="32.9037" x2="107.332" y2="32.9037" gradientUnits="userSpaceOnUse">
<stop stop-color="white" stop-opacity="0.38"/>
<stop offset="0.97" stop-color="white" stop-opacity="0.5"/>
</linearGradient>
<linearGradient id="paint17_linear" x1="79.1738" y1="16.775" x2="79.1738" y2="89.4068" gradientUnits="userSpaceOnUse">
<stop stop-color="white" stop-opacity="0.35"/>
<stop offset="0.96" stop-color="white" stop-opacity="0.38"/>
<stop offset="1" stop-color="white" stop-opacity="0.26"/>
</linearGradient>
<linearGradient id="paint18_linear" x1="-6.2015" y1="59.5111" x2="68.8592" y2="59.5111" gradientUnits="userSpaceOnUse">
<stop stop-color="white" stop-opacity="0.6"/>
<stop offset="0.93" stop-color="white" stop-opacity="0.47"/>
</linearGradient>
<linearGradient id="paint19_linear" x1="4.78662" y1="70.3922" x2="106.736" y2="70.3922" gradientUnits="userSpaceOnUse">
<stop stop-color="white" stop-opacity="0.38"/>
<stop offset="0.98" stop-color="white" stop-opacity="0.5"/>
</linearGradient>
<linearGradient id="paint20_linear" x1="84.0455" y1="63.9742" x2="84.0455" y2="27.4367" gradientUnits="userSpaceOnUse">
<stop stop-color="white" stop-opacity="0.3"/>
<stop offset="1" stop-color="white" stop-opacity="0.35"/>
</linearGradient>
<linearGradient id="paint21_linear" x1="0.705518" y1="29.1642" x2="107.754" y2="29.1642" gradientUnits="userSpaceOnUse">
<stop stop-color="white" stop-opacity="0.75"/>
<stop offset="0.32" stop-color="white" stop-opacity="0.57"/>
<stop offset="0.68" stop-color="white" stop-opacity="0.55"/>
<stop offset="0.9" stop-color="white" stop-opacity="0.45"/>
</linearGradient>
<linearGradient id="paint22_linear" x1="4.79867" y1="48.821" x2="106.748" y2="48.821" gradientUnits="userSpaceOnUse">
<stop stop-color="white" stop-opacity="0.4"/>
<stop offset="0.67" stop-color="white" stop-opacity="0.5"/>
</linearGradient>
<linearGradient id="paint23_linear" x1="41.3452" y1="32.9037" x2="107.332" y2="32.9037" gradientUnits="userSpaceOnUse">
<stop stop-color="white" stop-opacity="0.38"/>
<stop offset="0.97" stop-color="white" stop-opacity="0.5"/>
</linearGradient>
<linearGradient id="paint24_linear" x1="79.1738" y1="16.775" x2="79.1738" y2="89.4068" gradientUnits="userSpaceOnUse">
<stop stop-color="white" stop-opacity="0.35"/>
<stop offset="0.96" stop-color="white" stop-opacity="0.38"/>
<stop offset="1" stop-color="white" stop-opacity="0.26"/>
</linearGradient>
<linearGradient id="paint25_linear" x1="-6.2015" y1="59.5111" x2="68.8592" y2="59.5111" gradientUnits="userSpaceOnUse">
<stop stop-color="white" stop-opacity="0.6"/>
<stop offset="0.93" stop-color="white" stop-opacity="0.47"/>
</linearGradient>
<linearGradient id="paint26_linear" x1="4.78662" y1="70.3922" x2="106.736" y2="70.3922" gradientUnits="userSpaceOnUse">
<stop stop-color="white" stop-opacity="0.38"/>
<stop offset="0.98" stop-color="white" stop-opacity="0.5"/>
</linearGradient>
<linearGradient id="paint27_linear" x1="84.0455" y1="63.9742" x2="84.0455" y2="27.4367" gradientUnits="userSpaceOnUse">
<stop stop-color="white" stop-opacity="0.3"/>
<stop offset="1" stop-color="white" stop-opacity="0.35"/>
</linearGradient>
</defs>
</svg>
