<svg width="291" height="75" viewBox="0 0 291 75" fill="none" xmlns="http://www.w3.org/2000/svg">
<path d="M37.1613 48.9194L69.7258 34.4516C71.371 33.7258 73.3548 34.4516 74.0806 36.1452C74.8065 37.7903 74.0806 39.7742 72.3871 40.5L37.1613 56.1774L2.03226 40.5484C0.774194 40.0161 0 38.7581 0 37.4032V18.871C0 17.4677 0.82258 16.1613 2.12903 15.5806L37.1613 0L72.0484 15.5323C73.7903 16.3065 74.5645 18.3387 73.7903 20.0806C73.4516 20.8548 72.8226 21.4839 72.0484 21.8226L37.1613 37.3548L18.871 29.2258C17.2258 28.5 16.4516 26.5161 17.1774 24.871C17.9032 23.2258 19.8871 22.4516 21.5323 23.1774L37.1613 30.0968L62.9516 18.629L37.1613 7.16128L6.58064 20.7581V35.3226L37.1613 48.9194ZM4.64516 53.2742L37.2097 67.7419L69.7742 53.2742C71.4194 52.5484 73.4032 53.2742 74.129 54.9677C74.8548 56.6129 74.129 58.5968 72.4355 59.3226L37.2097 75L1.98387 59.3226C0.33871 58.5968 -0.435484 56.6129 0.290323 54.9677C1.01613 53.2742 2.95161 52.5484 4.64516 53.2742ZM106.839 25.9839V26.6613H114.919V33.7742H106.839V60.9194H99.4355V33.7742H94.2097V26.6613H99.4355V25.9839C99.4355 16.7419 104.661 11.371 114.919 12.0484V19.1613C109.742 18.7258 106.839 20.7097 106.839 25.9839ZM120.823 60.9677H128.226V10.9355H120.823V60.9677ZM162.048 43.8387C162.048 37.4516 157.403 32.8548 151.21 32.8548C145.016 32.8548 140.371 37.4516 140.371 43.8387C140.371 50.2258 145.016 54.8226 151.21 54.8226C157.355 54.7742 162.048 50.2258 162.048 43.8387ZM169.452 26.7097V61.0161H162.048V56.0806C159.435 59.7097 155.419 61.8871 150.048 61.8871C140.71 61.8871 132.968 54 132.968 43.8387C132.968 33.629 140.71 25.7903 150.048 25.7903C155.419 25.7903 159.435 27.9677 162.048 31.5484V26.6613L169.452 26.7097ZM188.71 33.8226V50.2742C188.71 54.6774 191.613 54.5806 197.226 54.3387V60.9677C185.855 62.3226 181.306 59.1774 181.306 50.2742V33.8226H175.016V26.7097H181.306V19.3064L188.71 17.129V26.7097H197.226V33.8226H188.71ZM214.887 25.9839V26.6613H222.968V33.7742H214.887V60.9194H207.484V33.7742H202.258V26.6613H207.484V25.9839C207.484 16.7419 212.71 11.371 222.968 12.0484V19.1613C217.742 18.7258 214.887 20.7097 214.887 25.9839ZM229.113 60.9194H236.516V26.6129H229.113V60.9194ZM228.097 16.7903C228.097 14.1774 230.226 12.0484 232.839 12.0484C235.452 12.0484 237.581 14.1774 237.581 16.7903C237.581 19.3064 235.452 21.5323 232.839 21.5323C230.226 21.5323 228.097 19.3064 228.097 16.7903ZM242.855 60.9677H250.258V10.9355H242.855V60.9677ZM282.871 40.9355C281.855 35.0323 277.5 32.5161 273.048 32.5161C267.484 32.5161 263.71 35.8065 262.694 40.9355C262.694 40.9355 282.871 40.9355 282.871 40.9355ZM273.726 55.0645C277.839 55.0645 280.935 53.2258 282.581 50.8065L288.677 54.3871C285.532 59.0323 280.403 61.8387 273.677 61.8387C262.355 61.8387 255.048 54.0968 255.048 43.7903C255.048 33.629 262.403 25.7419 273.145 25.7419C283.355 25.7419 290.371 33.9677 290.371 43.8387C290.371 44.8548 290.226 45.9677 290.081 46.9355H262.79C263.903 52.3065 268.258 55.0645 273.726 55.0645Z" fill="white"/>
</svg>
