<svg width="146" height="30" viewBox="0 0 146 30" fill="none" xmlns="http://www.w3.org/2000/svg">
<g clip-path="url(#clip0_1293:12697)">
<path d="M19.0598 25.3595C19.7848 25.3595 20.2198 25.9395 20.2198 26.5195C20.2198 27.2445 19.6398 27.6795 19.0598 27.6795C18.3348 27.6795 17.8998 27.0995 17.8998 26.5195C17.8998 25.9395 18.3348 25.3595 19.0598 25.3595ZM38.0548 17.9645C37.3298 17.9645 36.8948 17.3845 36.8948 16.8045C36.8948 16.2245 37.4748 15.6445 38.0548 15.6445C38.7798 15.6445 39.2148 16.2245 39.2148 16.8045C39.2148 17.3845 38.6348 17.9645 38.0548 17.9645ZM38.0548 13.0345C36.0248 13.0345 34.2848 14.7745 34.2848 16.8045C34.2848 17.2395 34.2848 17.6745 34.4298 17.9645L22.1048 24.4895C21.3798 23.4745 20.2198 22.8945 19.0598 22.8945C17.6098 22.8945 16.3048 23.7645 15.7248 24.9245L4.70476 19.1245C3.54476 18.5445 2.67476 16.5145 2.81976 14.7745C2.81976 13.9045 3.25476 13.1795 3.68976 12.8895C3.97976 12.7445 4.41476 12.7445 4.70476 12.8895H4.84976C7.74976 14.4845 17.4648 19.4145 17.7548 19.7045C18.3348 19.9945 18.7698 20.1395 19.7848 19.5595L39.6498 9.26455C39.9398 9.11955 40.2298 8.82955 40.2298 8.39455C40.2298 7.81455 39.6498 7.52455 39.6498 7.52455C38.4898 6.94455 36.7498 6.21955 35.1548 5.34955C31.5298 3.60955 27.4698 1.72455 25.5848 0.854546C23.9898 -0.0154544 22.8298 0.709546 22.5398 0.854546L22.1048 0.999546C13.9848 5.05955 3.10976 10.4245 2.52976 10.7145C1.36976 11.4395 0.789756 12.7445 0.644756 14.3395C0.499756 16.9495 1.80476 19.7045 3.83476 20.7195L15.5798 26.8095C15.8698 28.6945 17.4648 29.9995 19.2048 29.9995C21.2348 29.9995 22.9748 28.4045 22.9748 26.3745L35.8798 19.4145C36.6048 19.9945 37.3298 20.1395 38.1998 20.1395C40.2298 20.1395 41.9698 18.3995 41.9698 16.3695C41.6798 14.6295 40.0848 13.0345 38.0548 13.0345Z" fill="black"/>
<path d="M66.3299 22.8947C65.6049 23.6197 64.5899 24.3447 63.2849 24.7797C61.9799 25.2147 60.5299 25.5047 58.9349 25.5047C56.4699 25.5047 54.4399 24.7797 52.9899 23.1847C51.5399 21.7347 50.6699 19.5597 50.6699 16.9497V15.3547C50.6699 13.4697 50.9599 11.8747 51.6849 10.5697C52.4099 9.11973 53.2799 8.10473 54.4399 7.37973C55.5999 6.65473 57.0499 6.21973 58.6449 6.21973C60.9649 6.21973 62.8499 6.79973 64.1549 7.81473C65.4599 8.82973 66.1849 10.4247 66.4749 12.5997H62.1249C61.9799 11.5847 61.6899 10.8597 61.1099 10.4247C60.5299 9.98973 59.8049 9.69973 58.9349 9.69973C57.7749 9.69973 56.9049 10.1347 56.3249 11.1497C55.7449 12.1647 55.4549 13.4697 55.3099 15.2097V16.3697C55.3099 18.2547 55.5999 19.7047 56.3249 20.5747C56.9049 21.4447 57.9199 22.0247 59.3699 22.0247C60.5299 22.0247 61.3999 21.7347 61.9799 21.2997V18.3997H58.7899V15.3547H66.4749V22.8947H66.3299Z" fill="black"/>
<path d="M68.9399 25.2151H73.2899V11.2951H68.9399V25.2151ZM68.7949 7.67012C68.7949 7.09012 69.0849 6.51011 69.5199 6.07511C69.9549 5.64011 70.5349 5.49512 71.2599 5.49512C71.9849 5.49512 72.5649 5.64011 72.9999 6.07511C73.4349 6.51011 73.7249 6.94512 73.7249 7.67012C73.7249 8.25012 73.4349 8.83012 72.9999 9.26512C72.5649 9.70012 71.9849 9.84512 71.2599 9.84512C70.5349 9.84512 69.9549 9.70012 69.5199 9.26512C68.9399 8.83012 68.7949 8.39512 68.7949 7.67012Z" fill="black"/>
<path d="M81.1203 7.81543V11.2954H83.4403V14.3404H81.1203V20.7204C81.1203 21.3004 81.2653 21.5904 81.4103 21.8804C81.5553 22.0254 81.9903 22.1704 82.5703 22.1704C83.0053 22.1704 83.2953 22.1704 83.5853 22.0254V25.0704C82.8603 25.3604 81.9903 25.5054 81.1203 25.5054C79.6703 25.5054 78.5103 25.2154 77.7853 24.4904C77.0603 23.7654 76.7703 22.7504 76.7703 21.3004V14.3404H75.0303V11.2954H76.7703V7.81543H81.1203Z" fill="black"/>
<path d="M89.8202 17.2398V21.7348H92.7202C93.5902 21.7348 94.1702 21.5898 94.6052 21.1548C95.0402 20.7198 95.3302 20.2848 95.3302 19.5598C95.3302 17.9648 94.6052 17.2398 93.0102 17.2398H89.8202ZM89.8202 14.3398H92.1402C93.1552 14.3398 93.8802 14.1948 94.3152 13.7598C94.7502 13.4698 94.8952 12.8898 94.8952 12.1648C94.8952 11.4398 94.6052 10.8598 94.1702 10.4248C93.7352 10.1348 93.0102 9.84477 91.9952 9.84477H89.8202V14.3398ZM85.3252 25.2148V6.50977H92.1402C94.6052 6.50977 96.3452 6.94477 97.6502 7.81477C98.9552 8.68477 99.5352 9.98976 99.5352 11.7298C99.5352 12.7448 99.2452 13.4698 98.8102 14.1948C98.3752 14.9198 97.6502 15.3548 96.7802 15.6448C97.7952 15.9348 98.5202 16.3698 99.1002 17.0948C99.6802 17.8198 99.8252 18.6898 99.8252 19.7048C99.8252 21.5898 99.2452 22.8948 98.0852 23.9098C96.9252 24.7798 95.1852 25.3598 92.8652 25.3598L85.3252 25.2148Z" fill="black"/>
<path d="M105.915 18.3999C105.915 19.7049 106.06 20.5749 106.495 21.2999C106.93 21.8799 107.51 22.1699 108.235 22.1699C109.83 22.1699 110.555 21.0099 110.555 18.5449V18.1099C110.555 15.6449 109.685 14.3399 108.09 14.3399C106.64 14.3399 105.915 15.3549 105.77 17.5299L105.915 18.3999ZM101.565 18.1099C101.565 16.6599 101.855 15.4999 102.435 14.3399C103.015 13.3249 103.74 12.4549 104.755 11.8749C105.77 11.2949 106.93 11.0049 108.38 11.0049C110.41 11.0049 112.15 11.5849 113.31 12.8899C114.47 14.1949 115.05 15.9349 115.05 18.1099V18.3999C115.05 20.5749 114.47 22.3149 113.165 23.6199C112.005 24.9249 110.265 25.5049 108.235 25.5049C106.205 25.5049 104.61 24.9249 103.45 23.7649C102.29 22.6049 101.565 21.0099 101.565 18.9799V18.1099Z" fill="black"/>
<path d="M120.85 18.3999C120.85 19.7049 120.995 20.5749 121.43 21.2999C121.865 21.8799 122.445 22.1699 123.17 22.1699C124.765 22.1699 125.49 21.0099 125.49 18.5449V18.1099C125.49 15.6449 124.62 14.3399 123.025 14.3399C121.575 14.3399 120.85 15.3549 120.705 17.5299L120.85 18.3999ZM116.5 18.1099C116.5 16.6599 116.79 15.4999 117.37 14.3399C117.95 13.3249 118.675 12.4549 119.69 11.8749C120.705 11.2949 121.865 11.0049 123.315 11.0049C125.345 11.0049 127.085 11.5849 128.245 12.8899C129.405 14.1949 129.985 15.9349 129.985 18.1099V18.3999C129.985 20.5749 129.405 22.3149 128.1 23.6199C126.94 24.9249 125.2 25.5049 123.17 25.5049C121.14 25.5049 119.545 24.9249 118.385 23.7649C117.225 22.6049 116.5 21.0099 116.5 18.9799V18.1099Z" fill="black"/>
<path d="M137.525 20.1401L136.22 21.3001V25.2151H131.87V5.49512H136.22V15.9351L136.655 15.3551L139.99 11.2951H145.21L140.28 17.0951L145.5 25.2151H140.57L137.525 20.1401Z" fill="black"/>
</g>
<defs>
<clipPath id="clip0_1293:12697">
<rect width="146" height="30" fill="white"/>
</clipPath>
</defs>
</svg>
