<svg width="15" height="18" viewBox="0 0 15 18" fill="none" xmlns="http://www.w3.org/2000/svg">
<path d="M12.5304 9.54C12.5535 12.2625 14.9766 13.1625 14.9997 13.1737C14.9766 13.2413 14.6074 14.4675 13.7304 15.7275C12.9574 16.83 12.1612 17.91 10.9035 17.9325C9.66889 17.955 9.27659 17.2237 7.86889 17.2237C6.44966 17.2237 6.02274 17.91 4.84582 17.955C3.63428 18 2.7112 16.7738 1.93812 15.6825C0.357356 13.455 -0.854182 9.3825 0.772741 6.6375C1.15275 5.97267 1.7036 5.41566 2.37118 5.02118C3.03876 4.6267 3.80011 4.40832 4.58043 4.3875C5.76889 4.365 6.88812 5.175 7.62659 5.175C8.35351 5.175 9.70351 4.19625 11.1458 4.3425C11.7458 4.365 13.4304 4.57875 14.515 6.12C14.4343 6.17625 12.5074 7.2675 12.5304 9.54ZM10.2112 2.86875C10.8574 2.10375 11.2843 1.04625 11.1689 0C10.2458 0.03375 9.11505 0.6075 8.45736 1.36125C7.85736 2.03625 7.33812 3.105 7.47659 4.14C8.51505 4.21875 9.56505 3.6225 10.2112 2.86875Z" fill="black"/>
</svg>
