<svg width="72" height="50" viewBox="0 0 72 50" fill="none" xmlns="http://www.w3.org/2000/svg">
<path d="M40.9088 11.8307C42.1592 10.5759 42.9339 8.84539 42.9339 6.93375C42.9339 3.10458 39.8293 0 36.0001 0C33.5789 0 31.4508 1.24301 30.2107 3.12372C29.8823 3.45362 2.28278 37.4699 2.02504 37.8617C0.773198 39.115 0 40.8455 0 42.7571C0 46.5863 3.1031 49.6909 6.93228 49.6909C9.35349 49.6909 11.4816 48.4479 12.7217 46.5672C13.0516 46.2373 40.6511 12.221 40.9088 11.8307Z" fill="#6366F1"/>
<path d="M56.878 27.9706C58.1328 26.7159 58.9089 24.9839 58.9089 23.0693C58.9089 19.2401 55.8043 16.1355 51.9752 16.1355C49.554 16.1355 47.4243 17.38 46.1843 19.2607C45.8529 19.5936 31.3565 37.4611 31.0973 37.8558C29.8425 39.1106 29.0679 40.8426 29.0679 42.7571C29.0679 46.5863 32.171 49.6909 36.0001 49.6909C38.4214 49.6909 40.551 48.4464 41.791 46.5657C42.1224 46.2328 56.6188 28.3653 56.878 27.9706Z" fill="#6366F1"/>
<path d="M72.0003 6.93375C72.0003 10.7629 68.8972 13.8675 65.068 13.8675C61.2388 13.8675 58.1343 10.7629 58.1343 6.93375C58.1343 3.10458 61.2388 0 65.068 0C68.8972 0 72.0003 3.10458 72.0003 6.93375Z" fill="#6366F1"/>
<path d="M13.866 6.93375C13.866 10.7629 10.7615 13.8675 6.93228 13.8675C3.1031 13.8675 0 10.7629 0 6.93375C0 3.10458 3.1031 0 6.93228 0C10.7615 0 13.866 3.10458 13.866 6.93375Z" fill="#6366F1"/>
</svg>
